<svg version="1" xmlns="http://www.w3.org/2000/svg" width="400" height="400" viewBox="0 0 300.000000 300.000000"><path d="M135.1 41.5c-14.3 3.2-27.1 8.9-38 17l-6.4 4.7-27.6-3.6c-36.2-4.8-39.4-4.7-35.8.7.8 1.2 9.5 10.4 19.2 20.5 12.1 12.5 17 18.1 15.4 17.8-5.4-1.3-40.6-6.6-43.7-6.6-3.9 0-5.1 2.1-2.9 5.3.8 1.2 10.9 12.4 22.4 24.9l20.9 22.6 1.6 8.4c5.5 28.8 24.5 54 50.5 66.9 4.5 2.2 8.4 4.6 8.6 5.2 8.2 19.2 10.4 25.7 8.9 25.7-13.4.2-50.1 2.3-55.1 3.2-6.1 1-6.4 1.2-3.6 2 8.2 2.3 31.7 3.3 79.5 3.2 48.6 0 69.1-.9 75.2-3.4 1.3-.5 2-.9 1.7-.9-.4-.1-2.9-.5-5.8-1.1-2.8-.5-15.7-1.4-28.8-2-13-.6-23.9-1.2-24.1-1.4-.2-.3-.1-5.1.3-10.8l.7-10.4 7.7-1.7c10.6-2.5 21.4-7 29.7-12.6l7-4.8 13.8 15.8c19.3 22.2 20.6 22.5 38.6 6.8 17.6-15.3 21-18.9 21-22.5 0-1.8-.8-3.8-1.9-4.8-1.1-1-12.4-6.1-25.3-11.4l-23.3-9.7 4.2-8.4c5.9-11.9 8.5-22.2 9.1-36.3 1.1-26.6-7-49.3-24.4-68.7-11.5-12.8-29.5-23.8-46.1-28.2-10.3-2.8-33.9-3.5-43.2-1.4zm20.7 15.2c-6.1 11.9-7.9 19.3-8.5 34.8-.6 15 .7 27.4 4.2 38.2 2 6.2 2.1 7.4.8 6.8-.9-.3-6.8-2-13.2-3.8-10.6-2.9-12.8-3.2-26.1-3.2-15.1 0-21.1 1.2-33.7 6.6-2.5 1.1-4.8 1.7-5 1.5-.3-.2.2-5.2 1.1-10.9 5.1-34.8 29.9-61.5 64.1-69.2 6.6-1.5 16.9-1.9 16.3-.8zM148.6 230h5.1l4.2 10c2.2 5.5 4.1 10.3 4.1 10.5 0 .3-6.3.5-13.9.5h-13.9l.4-7.8c.3-4.2.7-9.2 1-11.1.5-3.2.7-3.3 4.2-2.7 2 .3 6 .6 8.8.6z"/><path d="M114.9 77.5c-2.8 1.5-5.9 7-5.9 10.5 0 5.6 6.5 12 12.3 12 6.8 0 11.7-5.4 11.7-13.1 0-3.3-.6-4.7-3.4-7.5s-4.1-3.4-7.7-3.4c-2.4.1-5.6.7-7 1.5z"/></svg>